<svg width="85" height="85" viewBox="0 0 85 85" fill="none" xmlns="http://www.w3.org/2000/svg">
<path d="M42.4999 80.5728C63.527 80.5728 80.5728 63.527 80.5728 42.4999C80.5728 21.4728 63.527 4.427 42.4999 4.427C21.4728 4.427 4.427 21.4728 4.427 42.4999C4.427 63.527 21.4728 80.5728 42.4999 80.5728Z" stroke="#87B37A" stroke-linecap="round" stroke-linejoin="round"/>
<path d="M28.7547 6.98413L32.3584 9.84403L39.9145 11.2961L38.6944 15.2557L34.4055 16.7397L30.4778 23.0757L24.0762 27.0353L15.1016 28.2235L14.9033 31.7864L17.7738 34.8889L17.5755 40.1359L9.59078 34.6906L7.28516 28.0021" stroke="#87B37A" stroke-linecap="round" stroke-linejoin="round"/>
<path d="M73.541 64.5504L69.5796 61.8605L67.0066 56.633L62.0235 47.8514L61.8588 42.1104L57.9984 39.6472L52.4875 39.3426L43.412 35.3954L41.9617 26.6723L45.854 22.548H53.8404L56.711 26.2101L67.9292 27.069L75.82 24.0638M70.249 16.4333L66.1141 19.017L59.5815 17.8287L55.5883 15.9162L50.3094 17.533L46.4809 16.444L49.022 10.834L53.6085 11.0642L59.1423 8.24854M36.0188 80.0222L43.3146 76.1016L50.1341 75.6394L55.0163 74.3856L60.8583 75.8625M14.937 42.84L21.4377 36.1763L24.1099 40.9275L33.1182 41.5544L37.3416 47.9559H42.7196L41.2357 54.6532L36.1534 59.438L36.0878 63.2984L30.7753 67.3253L30.94 73.9907L26.4864 72.3403L24.241 65.9724L24.3401 52.9054L17.5756 51.6835L14.937 46.5038V42.84Z" stroke="#87B37A" stroke-linecap="round" stroke-linejoin="round"/>
</svg>
